<svg version="1.2" xmlns="http://www.w3.org/2000/svg" viewBox="0 0 80 80" width="80" height="80"><defs><linearGradient id="P" gradientUnits="userSpaceOnUse"/><linearGradient id="g1" x2="1" href="#P" gradientTransform="matrix(0,-280.615,0,0,NaN,NaN)"><stop stop-color="#c92d2a"/><stop offset=".14" stop-color="#bf2825"/><stop offset=".71" stop-color="#e73d3a"/><stop offset=".96" stop-color="#e95656"/></linearGradient><linearGradient id="g2" x2="1" href="#P" gradientTransform="matrix(-131.251,-0.154,.154,-131.251,113.438,55.238)"><stop stop-color="#c92d2a"/><stop offset=".14" stop-color="#bf2825"/><stop offset=".71" stop-color="#e73d3a"/><stop offset=".96" stop-color="#e95656"/></linearGradient></defs><style>.a{fill:none;stroke:url(#g1);stroke-width:4}.b{fill:url(#g2)}.c{fill:#fff}</style><path class="a" d="m42 75v107"/><path class="b" d="m80 40c0 22.1-17.9 40-40 40-22.1 0-40-17.9-40-40 0-22.1 17.9-40 40-40 22.1 0 40 17.9 40 40z"/><path fill-rule="evenodd" class="c" d="m63.7 59c0.5 0.5 0.8 1.2 0.8 1.9v1.6c0 0.5-0.2 0.9-0.6 1.3-0.3 0.3-0.8 0.5-1.3 0.5h-29.4q-0.4 0-0.6-0.3-0.3-0.2-0.3-0.6 0-0.4 0.3-0.7 0.2-0.2 0.6-0.2h29.4v-1.6q0-0.4-0.2-0.7-0.3-0.2-0.7-0.2c-13.8 0-30.6 0-44.4 0q-0.4 0-0.7 0.2-0.2 0.3-0.2 0.7v1.6h13.1q0.4 0 0.7 0.2 0.2 0.3 0.2 0.7 0 0.4-0.2 0.6-0.3 0.3-0.7 0.3h-13.1c-0.5 0-1-0.2-1.3-0.5-0.4-0.4-0.6-0.8-0.6-1.3v-1.6c0-0.7 0.3-1.4 0.8-1.9 0.5-0.5 1.1-0.8 1.8-0.9v-25.9c0-0.8 0.3-1.5 0.8-2 0.5-0.5 1.2-0.8 2-0.8h7v-4.1q0-0.4 0.2-0.6 0.3-0.3 0.7-0.3 0.3 0 0.6 0.3 0.3 0.2 0.3 0.6v32.8h2.3v-5.7q0-0.4 0.3-0.7 0.3-0.2 0.6-0.2 0.4 0 0.7 0.2 0.3 0.3 0.3 0.7v5.7h5.7v-12.5h-5.7v3.1q0 0.4-0.3 0.6-0.3 0.3-0.7 0.3-0.3 0-0.6-0.3-0.3-0.2-0.3-0.6v-3.1c0-0.5 0.2-0.9 0.6-1.3 0.3-0.3 0.8-0.5 1.3-0.5h13.2c0.5 0 1 0.2 1.3 0.5 0.4 0.4 0.6 0.8 0.6 1.3v12.5h2.3v-41.7c0-0.5-0.2-1-0.5-1.3-0.4-0.4-0.9-0.6-1.3-0.6h-18c-0.4 0-0.9 0.2-1.3 0.6-0.3 0.3-0.5 0.8-0.5 1.3v5.2q0 0.4-0.3 0.7-0.3 0.2-0.6 0.2-0.4 0-0.7-0.2-0.2-0.3-0.2-0.7v-5.2c0-1 0.3-1.9 1-2.6 0.7-0.7 1.7-1.1 2.6-1.1h18c0.9 0 1.9 0.4 2.6 1.1 0.7 0.7 1 1.6 1 2.6v13h7c0.8 0 1.5 0.3 2 0.8 0.5 0.5 0.8 1.2 0.8 2v15.6q0 0.4-0.3 0.7-0.2 0.2-0.6 0.2-0.4 0-0.7-0.2-0.2-0.3-0.2-0.7v-15.6q0-0.4-0.3-0.7-0.3-0.2-0.7-0.2h-7v26.8h8v-6.6q0-0.4 0.2-0.6 0.3-0.3 0.7-0.3 0.4 0 0.6 0.3 0.3 0.2 0.3 0.6v6.6c0.7 0.1 1.3 0.4 1.8 0.9zm-36.8-27.7h-7q-0.4 0-0.7 0.2-0.3 0.3-0.3 0.7v25.9h8zm19.2 14.4h-5.7v12.5h5.7z"/><path fill-rule="evenodd" class="c" d="m31.7 22.1c-0.4-0.4-0.6-0.9-0.6-1.3v-2.5c0-0.5 0.2-0.9 0.6-1.3 0.3-0.3 0.8-0.5 1.3-0.5h2.4c0.5 0 1 0.2 1.3 0.5 0.4 0.4 0.6 0.8 0.6 1.3v2.5c0 0.4-0.2 0.9-0.6 1.3-0.3 0.3-0.8 0.5-1.3 0.5h-2.4c-0.5 0-1-0.2-1.3-0.5zm1.3-1.3h2.4v-2.5h-2.4z"/><path fill-rule="evenodd" class="c" d="m42.3 22.1c-0.4-0.4-0.6-0.9-0.6-1.3v-2.5c0-0.5 0.2-0.9 0.6-1.3 0.3-0.3 0.8-0.5 1.3-0.5h2.4c0.5 0 1 0.2 1.3 0.5 0.4 0.4 0.6 0.8 0.6 1.3v2.5c0 0.4-0.2 0.9-0.6 1.3-0.3 0.3-0.8 0.5-1.3 0.5h-2.4c-0.5 0-1-0.2-1.3-0.5zm1.3-1.3h2.4v-2.5h-2.4z"/><path fill-rule="evenodd" class="c" d="m31.1 26.6c0-0.5 0.2-1 0.6-1.3 0.3-0.4 0.8-0.6 1.3-0.6h2.4c0.5 0 1 0.2 1.3 0.6 0.4 0.3 0.6 0.8 0.6 1.3v2.4c0 0.5-0.2 1-0.6 1.3-0.3 0.3-0.8 0.5-1.3 0.5h-2.4c-0.5 0-1-0.2-1.3-0.5-0.4-0.3-0.6-0.8-0.6-1.3zm1.9 2.4h2.4v-2.4h-2.4z"/><path fill-rule="evenodd" class="c" d="m41.7 26.6c0-0.5 0.2-1 0.6-1.3 0.3-0.4 0.8-0.6 1.3-0.6h2.4c0.5 0 1 0.2 1.3 0.6 0.4 0.3 0.6 0.8 0.6 1.3v2.4c0 0.5-0.2 1-0.6 1.3-0.3 0.3-0.8 0.5-1.3 0.5h-2.4c-0.5 0-1-0.2-1.3-0.5-0.4-0.3-0.6-0.8-0.6-1.3zm1.9 2.4h2.4v-2.4h-2.4z"/><path fill-rule="evenodd" class="c" d="m31.1 34.8c0-0.5 0.2-1 0.6-1.3 0.3-0.3 0.8-0.5 1.3-0.5h2.4c0.5 0 1 0.2 1.3 0.5 0.4 0.3 0.6 0.8 0.6 1.3v2.4c0 0.5-0.2 1-0.6 1.3-0.3 0.4-0.8 0.6-1.3 0.6h-2.4c-0.5 0-1-0.2-1.3-0.6-0.4-0.3-0.6-0.8-0.6-1.3zm1.9 2.5h2.4v-2.5h-2.4z"/><path fill-rule="evenodd" class="c" d="m41.7 34.8c0-0.5 0.2-1 0.6-1.3 0.3-0.3 0.8-0.5 1.3-0.5h2.4c0.5 0 1 0.2 1.3 0.5 0.4 0.3 0.6 0.8 0.6 1.3v2.4c0 0.5-0.2 1-0.6 1.3-0.3 0.4-0.8 0.6-1.3 0.6h-2.4c-0.5 0-1-0.2-1.3-0.6-0.4-0.3-0.6-0.8-0.6-1.3zm1.9 2.5h2.4v-2.5h-2.4z"/><path class="c" d="m22.9 50q0.4 0 0.6-0.2 0.3-0.3 0.3-0.7v-14.6q0-0.4-0.3-0.7-0.2-0.2-0.6-0.2-0.4 0-0.7 0.2-0.2 0.3-0.2 0.7v14.6q0 0.4 0.2 0.7 0.3 0.2 0.7 0.2z"/><path class="c" d="m55.2 34.5v14.6q0 0.4 0.3 0.6 0.2 0.3 0.6 0.3 0.4 0 0.7-0.3 0.2-0.2 0.2-0.6v-14.6q0-0.4-0.2-0.7-0.3-0.2-0.7-0.2-0.4 0-0.6 0.2-0.3 0.3-0.3 0.7z"/></svg>