<svg width="80" height="80" viewBox="0 0 80 80" fill="none" xmlns="http://www.w3.org/2000/svg">
<path fill-rule="evenodd" clip-rule="evenodd" d="M40 80C62.0914 80 80 62.0914 80 40C80 17.9086 62.0914 0 40 0C17.9086 0 0 17.9086 0 40C0 62.0914 17.9086 80 40 80ZM24.8951 18.2427C26.3556 17.6694 28.0264 17.2784 30.4743 17.1634V17.1601C32.9272 17.0418 33.7092 17.0139 39.9554 17.0024C46.2017 16.9909 46.9903 17.0188 49.4382 17.124C51.8861 17.2291 53.5585 17.6152 55.0223 18.1819C56.5371 18.7651 57.8218 19.5487 59.1016 20.8252C60.3814 22.1016 61.17 23.383 61.7614 24.8944C62.3348 26.3565 62.7242 28.0223 62.8408 30.475C62.9575 32.9277 62.9837 33.7096 62.9969 39.9556C63.01 46.2015 62.9837 46.9851 62.8769 49.4394C62.7702 51.8855 62.3857 53.5596 61.8189 55.0216C61.2357 56.5363 60.4504 57.8193 59.1755 59.1007C57.9007 60.3821 56.6176 61.1706 55.1061 61.762C53.6439 62.3337 51.983 62.7247 49.5285 62.8414C47.074 62.958 46.2887 62.9859 40.0441 62.9974C33.7995 63.0089 33.0109 62.9843 30.563 62.8775C28.1151 62.7707 26.441 62.3847 24.9789 61.8195C23.4609 61.2331 22.1794 60.4494 20.8996 59.1746C19.6198 57.8982 18.8296 56.6168 18.2398 55.1054C17.6664 53.6433 17.277 51.9726 17.1604 49.5265C17.0421 47.0722 17.0142 46.2885 17.0027 40.0443C16.9912 33.8 17.0142 33.0115 17.1226 30.5637C17.231 28.1143 17.6138 26.4419 18.1806 24.9782C18.7655 23.4652 19.5508 22.1821 20.8257 20.9024C22.1022 19.6227 23.3836 18.8325 24.8951 18.2427ZM26.4723 57.9557C27.2838 58.2678 28.5012 58.6407 30.7438 58.7377C33.1687 58.8428 33.8965 58.8674 40.0376 58.8543C46.1787 58.8411 46.9065 58.8165 49.3314 58.7032C51.5706 58.5964 52.788 58.2185 53.5979 57.9031C54.6707 57.4842 55.4363 56.9864 56.2397 56.1782C57.0431 55.3699 57.5425 54.6044 57.9565 53.53C58.2687 52.7168 58.6399 51.4995 58.7385 49.2571C58.8453 46.834 58.8667 46.1045 58.8552 39.9654C58.8437 33.8263 58.8174 33.0985 58.7024 30.6738C58.5972 28.4313 58.221 27.2157 57.9039 26.4074C57.4834 25.3314 56.9856 24.5675 56.1773 23.7642C55.369 22.9608 54.6034 22.4631 53.5289 22.0491C52.719 21.7353 51.5 21.364 49.2591 21.2671C46.8325 21.1603 46.1031 21.1373 39.9636 21.1505C33.8242 21.1636 33.0964 21.1866 30.6715 21.3016C28.4306 21.4084 27.2132 21.7846 26.4033 22.1016C25.3305 22.5206 24.5632 23.0183 23.7615 23.8266C22.9598 24.6348 22.4603 25.3987 22.0463 26.4748C21.7342 27.2863 21.3596 28.5053 21.2643 30.746C21.1575 33.1708 21.1345 33.8969 21.1477 40.0377C21.1608 46.1785 21.1855 46.9062 21.2988 49.3294C21.404 51.5718 21.7835 52.7874 22.0989 53.599C22.5178 54.6717 23.0156 55.4406 23.8239 56.2406C24.6322 57.0406 25.3978 57.5417 26.4723 57.9557ZM52.259 30.4635C50.7344 30.4668 49.4973 29.233 49.494 27.7085C49.4924 26.184 50.7245 24.947 52.2491 24.9437C53.7737 24.9404 55.0108 26.1741 55.0141 27.6987C55.0174 29.2232 53.7836 30.4602 52.259 30.4635ZM40.0228 51.8083C33.5005 51.8215 28.2039 46.5448 28.1907 40.0229C28.1776 33.501 33.4562 28.203 39.9784 28.1899C46.5007 28.1767 51.799 33.455 51.8121 39.9769C51.8236 46.4988 46.545 51.7952 40.0228 51.8083ZM39.9883 32.333C35.7529 32.3412 32.3275 35.7812 32.3357 40.0147V40.018C32.3439 44.2515 35.7841 47.6751 40.0178 47.6668C44.2532 47.6586 47.6786 44.2186 47.6704 39.9851C47.6622 35.75 44.222 32.3248 39.9883 32.333Z" fill="url(#paint0_linear_249_105)"/>
<defs>
<linearGradient id="paint0_linear_249_105" x1="113.438" y1="55.2381" x2="-17.8131" y2="55.0843" gradientUnits="userSpaceOnUse">
<stop stop-color="#C92D2A"/>
<stop offset="0.139483" stop-color="#BF2825"/>
<stop offset="0.709427" stop-color="#E73D3A"/>
<stop offset="0.957555" stop-color="#E95656"/>
</linearGradient>
</defs>
</svg>
