<svg width="87" height="87" viewBox="0 0 87 87" fill="none" xmlns="http://www.w3.org/2000/svg">
<path fill-rule="evenodd" clip-rule="evenodd" d="M86.8781 43.7195C86.8781 67.6226 67.5008 86.9999 43.5976 86.9999C19.6945 86.9999 0.317139 67.6226 0.317139 43.7195C0.317139 19.8163 19.6945 0.438965 43.5976 0.438965C67.5008 0.438965 86.8781 19.8163 86.8781 43.7195ZM44.6216 74.1019L42.9221 72.6451C40.5791 70.6833 20.1212 53.0151 20.1212 40.0912C20.1212 26.56 31.0904 15.5908 44.6216 15.5908C58.1528 15.5908 69.122 26.56 69.122 40.0912C69.122 53.0152 48.6641 70.6834 46.3309 72.6548L44.6216 74.1019ZM44.6216 20.8885C34.0213 20.9005 25.431 29.4908 25.419 40.0911C25.419 48.2102 38.0055 61.1802 44.6216 67.1165C51.2378 61.1778 63.8242 48.2003 63.8242 40.0911C63.8122 29.4908 55.222 20.9006 44.6216 20.8885ZM34.9101 40.0905C34.9101 45.4542 39.2582 49.8023 44.6219 49.8023C49.9856 49.8023 54.3336 45.4542 54.3336 40.0905C54.3336 34.7269 49.9855 30.3788 44.6219 30.3788C39.2582 30.3788 34.9101 34.7269 34.9101 40.0905ZM39.766 40.0904C39.766 37.4086 41.9401 35.2345 44.6219 35.2345C47.3038 35.2345 49.4778 37.4086 49.4778 40.0904C49.4778 42.7722 47.3037 44.9463 44.6219 44.9463C41.9401 44.9463 39.766 42.7722 39.766 40.0904Z" fill="url(#paint0_radial_246_35)"/>
<defs>
<radialGradient id="paint0_radial_246_35" cx="0" cy="0" r="1" gradientUnits="userSpaceOnUse" gradientTransform="translate(-34.0853 124.732) rotate(-50.0747) scale(204.041 64.3118)">
<stop offset="0.21" stop-color="white"/>
<stop offset="0.543597" stop-color="#C2C2C2"/>
<stop offset="0.841924" stop-color="#828080"/>
</radialGradient>
</defs>
</svg>
