<svg width="87" height="87" viewBox="0 0 87 87" fill="none" xmlns="http://www.w3.org/2000/svg">
<path fill-rule="evenodd" clip-rule="evenodd" d="M86.756 43.7195C86.756 67.6226 67.3787 86.9999 43.4756 86.9999C19.5724 86.9999 0.195068 67.6226 0.195068 43.7195C0.195068 19.8163 19.5724 0.438965 43.4756 0.438965C67.3787 0.438965 86.756 19.8163 86.756 43.7195ZM44.4995 74.1019L42.8 72.6451C40.457 70.6833 19.9991 53.0151 19.9991 40.0912C19.9991 26.56 30.9684 15.5908 44.4995 15.5908C58.0307 15.5908 68.9999 26.56 68.9999 40.0912C68.9999 53.0152 48.542 70.6834 46.2088 72.6548L44.4995 74.1019ZM44.4995 20.8885C33.8992 20.9005 25.3089 29.4908 25.2969 40.0911C25.2969 48.2102 37.8834 61.1802 44.4995 67.1165C51.1157 61.1778 63.7021 48.2003 63.7021 40.0911C63.6901 29.4908 55.1 20.9006 44.4995 20.8885ZM34.7881 40.0905C34.7881 45.4542 39.1362 49.8023 44.4998 49.8023C49.8636 49.8023 54.2116 45.4542 54.2116 40.0905C54.2116 34.7269 49.8635 30.3788 44.4998 30.3788C39.1362 30.3788 34.7881 34.7269 34.7881 40.0905ZM39.6439 40.0904C39.6439 37.4086 41.818 35.2345 44.4998 35.2345C47.1818 35.2345 49.3557 37.4086 49.3557 40.0904C49.3557 42.7722 47.1816 44.9463 44.4998 44.9463C41.818 44.9463 39.6439 42.7722 39.6439 40.0904Z" fill="url(#paint0_linear_246_55)"/>
<defs>
<linearGradient id="paint0_linear_246_55" x1="122.936" y1="60.2072" x2="-19.0789" y2="60.0408" gradientUnits="userSpaceOnUse">
<stop stop-color="#C92D2A"/>
<stop offset="0.139483" stop-color="#BF2825"/>
<stop offset="0.709427" stop-color="#E73D3A"/>
<stop offset="0.957555" stop-color="#E95656"/>
</linearGradient>
</defs>
</svg>
