<svg width="87" height="87" viewBox="0 0 87 87" fill="none" xmlns="http://www.w3.org/2000/svg">
<path fill-rule="evenodd" clip-rule="evenodd" d="M43.2805 86.561C67.1836 86.561 86.561 67.1836 86.561 43.2805C86.561 19.3773 67.1836 0 43.2805 0C19.3773 0 0 19.3773 0 43.2805C0 67.1836 19.3773 86.561 43.2805 86.561ZM21.4018 22.9107H65.5982C67.1966 22.9107 68.7295 23.5457 69.8598 24.676C70.99 25.8062 71.625 27.3391 71.625 28.9375V57.0625C71.625 58.6609 70.99 60.1939 69.8598 61.3241C68.7295 62.4543 67.1966 63.0893 65.5982 63.0893H21.4018C19.8034 63.0893 18.2705 62.4543 17.1402 61.3241C16.01 60.1939 15.375 58.6609 15.375 57.0625V28.9375C15.375 27.3391 16.01 25.8062 17.1402 24.676C18.2705 23.5457 19.8034 22.9107 21.4018 22.9107ZM33.2544 42.3652L19.3928 29.6547V56.2308L33.2544 42.3652ZM43.5 45.5857C44.0029 45.5857 44.4875 45.3971 44.8581 45.0572L64.634 26.9286H22.366L42.1419 45.0572C42.5125 45.3971 42.9971 45.5857 43.5 45.5857ZM39.434 48.0204L36.2197 45.0813L22.2335 59.0714H64.7665L50.7824 45.0813L47.5781 48.0204C46.4701 49.046 45.0158 49.6157 43.506 49.6157C41.9962 49.6157 40.542 49.046 39.434 48.0204ZM67.6072 29.6547L53.7375 42.3652L67.6072 56.2308V29.6547Z" fill="url(#paint0_linear_246_64)"/>
<defs>
<linearGradient id="paint0_linear_246_64" x1="122.741" y1="59.7683" x2="-19.2739" y2="59.6019" gradientUnits="userSpaceOnUse">
<stop stop-color="#C92D2A"/>
<stop offset="0.139483" stop-color="#BF2825"/>
<stop offset="0.709427" stop-color="#E73D3A"/>
<stop offset="0.957555" stop-color="#E95656"/>
</linearGradient>
</defs>
</svg>
