<svg width="87" height="87" viewBox="0 0 87 87" fill="none" xmlns="http://www.w3.org/2000/svg">
<path fill-rule="evenodd" clip-rule="evenodd" d="M43.2805 86.561C67.1836 86.561 86.561 67.1836 86.561 43.2805C86.561 19.3773 67.1836 0 43.2805 0C19.3773 0 0 19.3773 0 43.2805C0 67.1836 19.3773 86.561 43.2805 86.561ZM34.9511 37.2723C37.6724 43.7409 42.8113 48.8918 49.2737 51.6281L56.8489 44.0529L70.7541 57.9581L63.716 64.9962C62.4894 66.2177 61.0323 67.1835 59.4294 67.8373C57.8264 68.4911 56.1096 68.82 54.3785 68.8049C38.2915 68.8049 17.7566 48.2699 17.7566 32.1829C17.7425 30.4516 18.0719 28.7348 18.7256 27.1316C19.3794 25.5285 20.3445 24.0709 21.5653 22.8432L28.6033 15.8073L42.4975 29.7126L34.9511 37.2723ZM57.7289 63.7342C58.7927 63.3036 59.7603 62.6658 60.5754 61.8578L64.4773 57.9581L56.8489 50.3296L50.3546 56.8262L49.0095 56.3134C44.7253 54.7182 40.834 52.2207 37.5994 48.9903C34.3647 45.7598 31.8621 41.8718 30.2613 37.5896L29.7175 36.2269L36.2318 29.7126L28.6033 22.0841L24.7037 25.9838C23.8961 26.7997 23.2586 27.7677 22.828 28.8319C22.3975 29.896 22.1825 31.035 22.1956 32.1829C22.1956 46.0171 40.5443 64.3658 54.3785 64.3658C55.5261 64.3795 56.665 64.1648 57.7289 63.7342Z" fill="url(#paint0_linear_246_50)"/>
<defs>
<linearGradient id="paint0_linear_246_50" x1="122.741" y1="59.7683" x2="-19.2739" y2="59.6019" gradientUnits="userSpaceOnUse">
<stop stop-color="#C92D2A"/>
<stop offset="0.139483" stop-color="#BF2825"/>
<stop offset="0.709427" stop-color="#E73D3A"/>
<stop offset="0.957555" stop-color="#E95656"/>
</linearGradient>
</defs>
</svg>
