<svg width="87" height="87" viewBox="0 0 87 87" fill="none" xmlns="http://www.w3.org/2000/svg">
<path fill-rule="evenodd" clip-rule="evenodd" d="M43.4026 86.561C67.3057 86.561 86.683 67.1836 86.683 43.2805C86.683 19.3773 67.3057 0 43.4026 0C19.4994 0 0.12207 19.3773 0.12207 43.2805C0.12207 67.1836 19.4994 86.561 43.4026 86.561ZM35.0732 37.2723C37.7945 43.7409 42.9334 48.8918 49.3957 51.6281L56.9709 44.0529L70.8762 57.9581L63.8381 64.9962C62.6115 66.2177 61.1544 67.1835 59.5514 67.8373C57.9485 68.4911 56.2317 68.82 54.5006 68.8049C38.4136 68.8049 17.8787 48.2699 17.8787 32.1829C17.8646 30.4516 18.1939 28.7348 18.8477 27.1316C19.5014 25.5285 20.4666 24.0709 21.6873 22.8432L28.7254 15.8073L42.6196 29.7126L35.0732 37.2723ZM57.8509 63.7342C58.9148 63.3036 59.8824 62.6658 60.6975 61.8578L64.5994 57.9581L56.9709 50.3296L50.4766 56.8262L49.1316 56.3134C44.8474 54.7182 40.9561 52.2207 37.7214 48.9903C34.4867 45.7598 31.9842 41.8718 30.3834 37.5896L29.8396 36.2269L36.3539 29.7126L28.7254 22.0841L24.8257 25.9838C24.0182 26.7997 23.3806 27.7677 22.9501 28.8319C22.5196 29.896 22.3046 31.035 22.3177 32.1829C22.3177 46.0171 40.6664 64.3658 54.5006 64.3658C55.6482 64.3795 56.7871 64.1648 57.8509 63.7342Z" fill="url(#paint0_radial_246_33)"/>
<defs>
<radialGradient id="paint0_radial_246_33" cx="0" cy="0" r="1" gradientUnits="userSpaceOnUse" gradientTransform="translate(-34.2804 124.293) rotate(-50.0747) scale(204.041 64.3118)">
<stop offset="0.21" stop-color="white"/>
<stop offset="0.543597" stop-color="#C2C2C2"/>
<stop offset="0.841924" stop-color="#828080"/>
</radialGradient>
</defs>
</svg>
