<svg width="80" height="80" viewBox="0 0 80 80" fill="none" xmlns="http://www.w3.org/2000/svg">
<path fill-rule="evenodd" clip-rule="evenodd" d="M39.9999 80.0001C62.0912 80.0001 79.9998 62.0915 79.9998 40.0001C79.9998 17.9086 62.0912 0 39.9999 0C17.9086 0 0 17.9086 0 40.0001C0 62.0915 17.9086 80.0001 39.9999 80.0001ZM42.5128 17H50.4337C50.4337 22.9942 55.105 27.8986 61.0625 28.1029V36.1406C57.2036 36.0725 53.5478 34.7783 50.569 32.5985V49.0144C50.569 57.2565 43.9345 64 35.7429 64C27.5512 64 20.9167 57.3247 20.9167 49.0144C20.9167 40.7725 27.4158 34.1652 35.4721 34.029V42.0667C31.8163 42.2028 28.8375 45.2682 28.8375 49.0144C28.8375 52.829 31.884 55.9623 35.6752 55.9623C39.4664 55.9623 42.5128 52.829 42.5128 49.0144V17Z" fill="url(#paint0_linear_249_109)"/>
<defs>
<linearGradient id="paint0_linear_249_109" x1="113.438" y1="55.2381" x2="-17.8131" y2="55.0843" gradientUnits="userSpaceOnUse">
<stop stop-color="#C92D2A"/>
<stop offset="0.139483" stop-color="#BF2825"/>
<stop offset="0.709427" stop-color="#E73D3A"/>
<stop offset="0.957555" stop-color="#E95656"/>
</linearGradient>
</defs>
</svg>
