<svg width="80" height="80" viewBox="0 0 80 80" fill="none" xmlns="http://www.w3.org/2000/svg">
<path fill-rule="evenodd" clip-rule="evenodd" d="M40 80C62.0914 80 80 62.0914 80 40C80 17.9086 62.0914 0 40 0C17.9086 0 0 17.9086 0 40C0 62.0914 17.9086 80 40 80ZM40.763 16.6272C46.9304 16.6306 52.7206 19.0304 57.0732 23.3896L57.0715 23.393C61.4258 27.7506 63.8206 33.5424 63.8189 39.7048C63.8156 52.4186 53.4701 62.7625 40.7613 62.7625H40.7513C36.8923 62.7608 33.0998 61.7936 29.7327 59.9555L17.5092 63.1613L20.7816 51.212C18.764 47.717 17.702 43.75 17.7037 39.6849C17.707 26.9711 28.0525 16.6272 40.763 16.6272ZM40.7547 58.8669H40.763C51.3262 58.8669 59.9217 50.2697 59.9267 39.7015C59.93 34.5811 57.9374 29.7648 54.3193 26.1435C50.6996 22.5205 45.8884 20.5245 40.7696 20.5228C30.1981 20.5228 21.6009 29.12 21.5959 39.6866C21.5942 43.3079 22.608 46.8345 24.5259 49.8858L24.9813 50.6104L23.0451 57.6836L30.2994 55.7807L30.9991 56.1962C33.9424 57.9412 37.3161 58.8669 40.7547 58.8669ZM47.3376 42.6398C47.8661 42.8326 50.698 44.2253 51.2747 44.5145L51.2714 44.5178C51.3815 44.5727 51.4847 44.6224 51.5804 44.6686C51.986 44.8641 52.2596 44.9959 52.3765 45.1909C52.5211 45.4319 52.5211 46.5852 52.0408 47.9314C51.5605 49.2776 49.2588 50.5057 48.1519 50.6719C47.1597 50.8198 45.9033 50.8813 44.5239 50.4426C43.6863 50.1783 42.6127 49.8227 41.2383 49.2294C35.8412 46.8979 32.1925 41.6684 31.4987 40.674C31.4497 40.6037 31.4154 40.5546 31.3963 40.5292L31.3928 40.5245C31.0908 40.1218 29.043 37.3918 29.043 34.5678C29.043 31.9124 30.3477 30.5209 30.9474 29.8813C30.988 29.838 31.0254 29.7981 31.0589 29.7615C31.5874 29.1831 32.2107 29.0402 32.5962 29.0402C32.9818 29.0402 33.3657 29.0435 33.7014 29.0602C33.7431 29.0623 33.7866 29.0621 33.8314 29.0619C34.1673 29.0601 34.5858 29.058 34.9977 30.049C35.1583 30.4347 35.394 31.0084 35.642 31.6121C36.1356 32.8138 36.6781 34.1343 36.7743 34.3268C36.9189 34.6143 37.0153 34.95 36.8225 35.3356C36.7919 35.3966 36.7638 35.4539 36.7369 35.5086C36.5947 35.7984 36.4891 36.0138 36.2458 36.2962C36.1503 36.4078 36.0514 36.528 35.9525 36.6483C35.7537 36.8899 35.5547 37.1319 35.3816 37.305C35.0941 37.5909 34.7933 37.9033 35.129 38.48C35.4664 39.0583 36.6231 40.9446 38.3349 42.472C40.174 44.111 41.7727 44.8051 42.5849 45.1576C42.7444 45.2269 42.8736 45.283 42.9683 45.3305C43.5434 45.6196 43.8807 45.5731 44.2165 45.1875C44.5538 44.8036 45.6574 43.5057 46.0413 42.929C46.4252 42.3506 46.8091 42.447 47.3376 42.6398Z" fill="url(#paint0_linear_249_130)"/>
<defs>
<linearGradient id="paint0_linear_249_130" x1="113.438" y1="55.2381" x2="-17.8131" y2="55.0843" gradientUnits="userSpaceOnUse">
<stop stop-color="#C92D2A"/>
<stop offset="0.139483" stop-color="#BF2825"/>
<stop offset="0.709427" stop-color="#E73D3A"/>
<stop offset="0.957555" stop-color="#E95656"/>
</linearGradient>
</defs>
</svg>
